<svg xmlns="http://www.w3.org/2000/svg" width="666.667" height="666.667" preserveAspectRatio="xMidYMid meet" version="1.0" viewBox="0 0 500 500"><metadata>Created by potrace 1.14, written by Peter Selinger 2001-2017</metadata><g fill="#000" stroke="none"><path d="M2318 4605 c-2 -2 -30 -6 -63 -9 -183 -18 -473 -93 -585 -151 -16 -9 -32 -15 -35 -15 -4 0 -86 -40 -215 -106 -52 -27 -216 -139 -290 -199 -428 -349 -718 -870 -788 -1412 -9 -77 -9 -492 1 -568 20 -152 81 -379 141 -527 71 -174 218 -427 317 -543 252 -296 526 -504 844 -640 91 -38 265 -98 321 -109 10 -3 51 -11 89 -20 161 -35 277 -45 490 -41 99 2 203 7 230 10 121 15 391 81 470 114 11 5 45 19 75 31 570 231 1034 720 1236 1305 28 79 69 234 78 290 6 36 16 89 23 120 13 64 12 508 -3 602 -67 440 -256 846 -533 1148 -330 359 -730 589 -1186 681 -60 12 -144 27 -175 30 -43 6 -437 13 -442 9z" transform="translate(0.000000,500.000000) scale(0.100000,-0.100000)"/></g></svg>